<svg width="18" height="18" viewBox="0 0 18 18" fill="none" xmlns="http://www.w3.org/2000/svg">
<path d="M8.80398 4.40088C6.33289 4.40088 4.40234 6.40864 4.40234 8.80252C4.40234 11.2736 6.41011 13.2042 8.80398 13.2042C11.2751 13.2042 13.2056 11.1964 13.2056 8.80252C13.2056 6.40864 11.2751 4.40088 8.80398 4.40088ZM8.80398 11.6597C7.25955 11.6597 5.94678 10.347 5.94678 8.80252C5.94678 7.25808 7.25955 5.94531 8.80398 5.94531C10.3484 5.94531 11.6612 7.25808 11.6612 8.80252C11.6612 10.4242 10.3484 11.6597 8.80398 11.6597Z" fill="#F2F2F2"/>
<path d="M13.2045 3.5199C12.7305 3.5199 12.3242 3.9262 12.3242 4.40023C12.3242 4.87425 12.7305 5.28055 13.2045 5.28055C13.6786 5.28055 14.0849 4.87425 14.0849 4.40023C14.0849 3.9262 13.6786 3.5199 13.2045 3.5199Z" fill="#F2F2F2"/>
<path d="M17.4382 4.43131C17.2808 3.24435 16.8871 2.21566 16.0211 1.42435C15.1551 0.553915 13.9742 0.158261 12.7933 0.0791304C10.7464 -1.49012e-07 5.7865 -0.0791305 4.05449 0.158261C2.08629 0.474784 0.826642 1.66174 0.275547 3.56088C-0.118092 5.06436 -0.0393634 12.0279 0.19682 13.4522C0.511732 15.5096 1.69265 16.7757 3.73958 17.3296C5.15668 17.7253 11.9273 17.6461 13.5018 17.4087C15.5488 17.0922 16.8084 15.9053 17.3595 13.8479C17.7531 12.4235 17.5957 5.85566 17.4382 4.43131ZM15.7849 13.2939C15.5488 14.8766 14.5253 15.8261 12.9507 15.9844C11.5336 16.1426 5.15668 16.2218 3.89703 15.8261C2.63738 15.5096 1.92883 14.6392 1.69265 13.2939C1.45647 12.107 1.45647 6.01392 1.69265 4.35218C1.92883 2.8487 2.9523 1.89913 4.44813 1.66174C6.02269 1.50348 11.6124 1.50348 13.1082 1.66174C14.604 1.89913 15.6275 2.92783 15.7849 4.51044C16.0211 6.09306 16.0211 11.7113 15.7849 13.2939Z" fill="#F2F2F2"/>
</svg>
