<svg width="32" height="32" viewBox="0 0 32 32" fill="none" xmlns="http://www.w3.org/2000/svg">
<path d="M15.9892 11.8899C14.0392 11.8899 12.0792 12.6499 10.5992 14.1799C9.15922 15.6599 8.36922 17.6199 8.36922 19.7099C8.36922 21.7999 9.15922 23.7599 10.5992 25.2399C12.0392 26.7199 13.9592 27.5299 15.9892 27.5299C18.0292 27.5299 19.9392 26.7199 21.3792 25.2399C24.3492 22.1899 24.3492 17.2299 21.3792 14.1799C19.8992 12.6499 17.9492 11.8899 15.9892 11.8899ZM16.5992 15.6599L17.4292 17.3799C17.5292 17.5799 17.7192 17.7299 17.9392 17.7599L19.7892 18.0399C20.3392 18.1199 20.5692 18.8199 20.1592 19.2199L18.8792 20.4999C18.6892 20.6899 18.6292 20.9699 18.7092 21.2299L19.2992 22.9399C19.4992 23.5099 18.9392 24.0499 18.3892 23.8099L16.2492 22.8499C16.0792 22.7699 15.8792 22.7699 15.7092 22.8499L13.5692 23.8099C13.0292 24.0499 12.4592 23.5099 12.6592 22.9399L13.2492 21.2299C13.3392 20.9699 13.2692 20.6899 13.0792 20.4999L11.7992 19.2199C11.3992 18.8199 11.6192 18.1199 12.1692 18.0399L14.0192 17.7599C14.2392 17.7299 14.4292 17.5899 14.5292 17.3799L15.3592 15.6599C15.6292 15.1399 16.3492 15.1399 16.5992 15.6599Z" fill="#B82E2E"/>
<path d="M7.11922 2C6.50368 2 5.99913 2.51 5.99913 3.14V8.93001C5.99913 9.33001 6.21104 9.71 6.55413 9.91L9.64104 11.7375C7.38773 13.6245 5.94922 16.495 5.94922 19.7099C5.94922 25.3929 10.4443 29.9999 15.9892 29.9999C21.5342 29.9999 26.0292 25.3929 26.0292 19.7099C26.0292 16.5137 24.6074 13.6578 22.3765 11.7705L25.4554 9.91C25.7915 9.71 25.9991 9.33001 25.9991 8.93001V3.14C25.9991 2.51 25.5048 2 24.9017 2H7.11922ZM21.6491 3V11.2096C20.8538 10.6523 19.9763 10.2092 19.0391 9.90329V3H21.6491ZM13.0391 3V9.8713C12.1075 10.1644 11.2336 10.5927 10.4391 11.1338V3H13.0391ZM15.9992 28.7599C13.6392 28.7599 11.4192 27.8199 9.75922 26.1099C8.08922 24.3999 7.16922 22.1299 7.16922 19.7099C7.16922 17.2899 8.08922 15.0199 9.75922 13.3099C13.1992 9.77985 18.7992 9.77985 22.2492 13.3099C25.6892 16.8399 25.6892 22.5799 22.2492 26.1099C20.5692 27.8199 18.3492 28.7599 15.9992 28.7599Z" fill="#B82E2E"/>
</svg>
