<svg width="9" height="20" viewBox="0 0 9 20" fill="none" xmlns="http://www.w3.org/2000/svg">
<path d="M7.21374 3.42629C7.76336 3.42629 8.31298 3.42629 8.79389 3.42629C8.8626 3.42629 8.9313 3.42629 9 3.42629V0.159362C8.72519 0.159362 8.38168 0.0796816 8.10687 0.0796816C7.55725 0.0796816 7.00763 0 6.45802 0C5.63359 0 4.80916 0.239044 4.12214 0.876494C3.29771 1.51394 2.8855 2.47012 2.74809 3.58566C2.67939 4.06375 2.67939 4.54183 2.67939 4.94024C2.67939 5.65737 2.67939 6.3745 2.67939 7.09163V7.33068H0V10.9163H2.67939V20H5.9084V10.996H8.58779C8.72519 9.8008 8.8626 8.60558 9 7.33068C8.79389 7.33068 8.58779 7.33068 8.38168 7.33068C7.62596 7.33068 5.9084 7.33068 5.9084 7.33068C5.9084 7.33068 5.9084 5.49801 5.9084 4.78088C5.9771 3.74502 6.52672 3.42629 7.21374 3.42629Z" fill="white"/>
</svg>
