<svg width="18" height="15" viewBox="0 0 18 15" fill="none" xmlns="http://www.w3.org/2000/svg">
<path d="M5.46154 11.6934C3.53846 11.6148 2.38462 10.2008 2 9.10108C2.53846 9.17963 3.07692 9.17963 3.61539 9.02252C3.61539 9.02252 3.61539 9.02252 3.69231 9.02252C2.69231 8.78686 1.84615 8.23698 1.30769 7.29433C0.923078 6.6659 0.769231 6.03747 0.769231 5.25192C1.30769 5.56614 1.84615 5.72325 2.38462 5.72325C1.61538 5.17337 1.07692 4.38783 0.846154 3.44518C0.615385 2.50253 0.769231 1.55988 1.23077 0.695786C3.23077 3.13096 5.76923 4.38783 8.84615 4.62349C8.84615 4.46638 8.76923 4.30928 8.76923 4.23072C8.69231 3.36663 8.84615 2.50253 9.30769 1.79554C9.92308 0.852894 10.7692 0.303016 11.8462 0.0673539C13.0769 -0.168308 14.1538 0.224462 15.0769 1.08856C15.1538 1.16711 15.1538 1.16711 15.3077 1.16711C16.0769 1.01 16.7692 0.695786 17.4615 0.303016C17.4615 0.303016 17.4615 0.303016 17.5385 0.303016C17.2308 1.16711 16.6923 1.8741 15.9231 2.34542C16.6154 2.26687 17.3077 2.10976 18 1.79554C17.8462 1.95265 17.6923 2.18831 17.5385 2.34542C17.1538 2.81675 16.6923 3.28807 16.2308 3.68084C16.1538 3.68084 16.1538 3.7594 16.1538 3.83795C16.1538 4.38783 16.1538 4.93771 16.0769 5.48759C15.9231 6.6659 15.6154 7.76566 15.1538 8.86541C14.6154 9.96517 14 10.9864 13.1538 11.8505C11.7692 13.343 10.0769 14.2856 8.07692 14.757C7.38462 14.9141 6.69231 14.9926 6 14.9926C3.84615 15.0712 1.92308 14.5213 0.0769234 13.343C0.0769234 13.343 0 13.343 0 13.2644C1.30769 13.4216 2.53846 13.2644 3.69231 12.7146C4.38462 12.4789 4.92308 12.0861 5.46154 11.6934Z" fill="white"/>
</svg>
